<svg width="553" height="121" viewBox="0 0 553 121" fill="none" xmlns="http://www.w3.org/2000/svg">
<path d="M182.92 70.08V62.208H201.064C203.56 62.208 205.768 61.696 207.688 60.672C209.672 59.648 211.208 58.208 212.296 56.352C213.448 54.496 214.024 52.288 214.024 49.728C214.024 47.168 213.448 44.96 212.296 43.104C211.208 41.248 209.672 39.808 207.688 38.784C205.768 37.76 203.56 37.248 201.064 37.248H182.92V29.376H201.64C205.736 29.376 209.384 30.208 212.584 31.872C215.848 33.536 218.408 35.904 220.264 38.976C222.184 41.984 223.144 45.568 223.144 49.728C223.144 53.824 222.184 57.408 220.264 60.48C218.408 63.488 215.848 65.856 212.584 67.584C209.384 69.248 205.736 70.08 201.64 70.08H182.92ZM176.872 96V29.376H185.896V96H176.872ZM250.322 96.96C246.162 96.96 242.386 95.936 238.994 93.888C235.602 91.776 232.914 88.928 230.93 85.344C229.01 81.76 228.05 77.728 228.05 73.248C228.05 68.768 229.01 64.736 230.93 61.152C232.914 57.568 235.57 54.72 238.898 52.608C242.29 50.496 246.098 49.44 250.322 49.44C253.778 49.44 256.85 50.176 259.538 51.648C262.29 53.056 264.498 55.04 266.162 57.6C267.826 60.096 268.754 63.008 268.946 66.336V80.064C268.754 83.328 267.826 86.24 266.162 88.8C264.562 91.36 262.386 93.376 259.634 94.848C256.946 96.256 253.842 96.96 250.322 96.96ZM251.762 88.8C256.05 88.8 259.506 87.36 262.13 84.48C264.754 81.536 266.066 77.792 266.066 73.248C266.066 70.112 265.458 67.392 264.242 65.088C263.09 62.72 261.426 60.896 259.25 59.616C257.074 58.272 254.546 57.6 251.666 57.6C248.786 57.6 246.226 58.272 243.986 59.616C241.81 60.96 240.082 62.816 238.802 65.184C237.586 67.488 236.978 70.144 236.978 73.152C236.978 76.224 237.586 78.944 238.802 81.312C240.082 83.616 241.842 85.44 244.082 86.784C246.322 88.128 248.882 88.8 251.762 88.8ZM265.49 96V83.712L267.122 72.576L265.49 61.536V50.4H274.226V96H265.49ZM286.805 96V50.4H295.445V96H286.805ZM295.445 69.984L292.181 68.544C292.181 62.72 293.525 58.08 296.213 54.624C298.901 51.168 302.773 49.44 307.829 49.44C310.133 49.44 312.213 49.856 314.069 50.688C315.925 51.456 317.653 52.768 319.253 54.624L313.589 60.48C312.629 59.456 311.573 58.72 310.421 58.272C309.269 57.824 307.925 57.6 306.389 57.6C303.189 57.6 300.565 58.624 298.517 60.672C296.469 62.72 295.445 65.824 295.445 69.984ZM332.157 96V31.296H340.797V96H332.157ZM320.925 58.272V50.4H352.029V58.272H320.925ZM380.206 96.96C375.662 96.96 371.566 95.936 367.918 93.888C364.27 91.776 361.39 88.928 359.278 85.344C357.166 81.76 356.11 77.696 356.11 73.152C356.11 68.672 357.134 64.64 359.182 61.056C361.294 57.472 364.11 54.656 367.63 52.608C371.214 50.496 375.214 49.44 379.63 49.44C383.854 49.44 387.566 50.4 390.766 52.32C394.03 54.24 396.558 56.896 398.35 60.288C400.206 63.68 401.134 67.52 401.134 71.808C401.134 72.448 401.102 73.152 401.038 73.92C400.974 74.624 400.846 75.456 400.654 76.416H362.158V69.216H396.046L392.878 72C392.878 68.928 392.334 66.336 391.246 64.224C390.158 62.048 388.622 60.384 386.638 59.232C384.654 58.016 382.254 57.408 379.438 57.408C376.494 57.408 373.902 58.048 371.662 59.328C369.422 60.608 367.694 62.4 366.478 64.704C365.262 67.008 364.654 69.728 364.654 72.864C364.654 76.064 365.294 78.88 366.574 81.312C367.854 83.68 369.678 85.536 372.046 86.88C374.414 88.16 377.134 88.8 380.206 88.8C382.766 88.8 385.102 88.352 387.214 87.456C389.39 86.56 391.246 85.216 392.782 83.424L398.35 89.088C396.174 91.648 393.486 93.6 390.286 94.944C387.15 96.288 383.79 96.96 380.206 96.96ZM442.811 96V69.408C442.811 65.952 441.723 63.104 439.547 60.864C437.371 58.624 434.555 57.504 431.099 57.504C428.795 57.504 426.747 58.016 424.955 59.04C423.163 60.064 421.755 61.472 420.731 63.264C419.707 65.056 419.195 67.104 419.195 69.408L415.643 67.392C415.643 63.936 416.411 60.864 417.947 58.176C419.483 55.488 421.627 53.376 424.379 51.84C427.131 50.24 430.235 49.44 433.691 49.44C437.147 49.44 440.187 50.304 442.811 52.032C445.499 53.76 447.611 56.032 449.147 58.848C450.683 61.6 451.451 64.544 451.451 67.68V96H442.811ZM410.555 96V50.4H419.195V96H410.555ZM482.541 96.96C478.381 96.96 474.605 95.936 471.213 93.888C467.821 91.776 465.133 88.928 463.148 85.344C461.229 81.76 460.269 77.728 460.269 73.248C460.269 68.768 461.229 64.736 463.148 61.152C465.133 57.568 467.789 54.72 471.117 52.608C474.509 50.496 478.317 49.44 482.541 49.44C485.997 49.44 489.069 50.176 491.757 51.648C494.509 53.056 496.717 55.04 498.381 57.6C500.045 60.096 500.973 63.008 501.165 66.336V80.064C500.973 83.328 500.045 86.24 498.381 88.8C496.781 91.36 494.605 93.376 491.853 94.848C489.165 96.256 486.061 96.96 482.541 96.96ZM483.981 88.8C488.269 88.8 491.725 87.36 494.349 84.48C496.973 81.536 498.285 77.792 498.285 73.248C498.285 70.112 497.677 67.392 496.461 65.088C495.309 62.72 493.645 60.896 491.469 59.616C489.293 58.272 486.765 57.6 483.885 57.6C481.005 57.6 478.445 58.272 476.205 59.616C474.029 60.96 472.301 62.816 471.021 65.184C469.805 67.488 469.197 70.144 469.197 73.152C469.197 76.224 469.805 78.944 471.021 81.312C472.301 83.616 474.061 85.44 476.301 86.784C478.541 88.128 481.101 88.8 483.981 88.8ZM497.709 96V83.712L499.341 72.576L497.709 61.536V50.4H506.445V96H497.709ZM519.023 96V50.4H527.664V96H519.023ZM527.664 69.984L524.4 68.544C524.4 62.72 525.744 58.08 528.432 54.624C531.12 51.168 534.992 49.44 540.048 49.44C542.352 49.44 544.432 49.856 546.288 50.688C548.144 51.456 549.872 52.768 551.472 54.624L545.808 60.48C544.848 59.456 543.792 58.72 542.64 58.272C541.488 57.824 540.144 57.6 538.608 57.6C535.408 57.6 532.784 58.624 530.736 60.672C528.688 62.72 527.664 65.824 527.664 69.984Z" fill="#111111"/>
<g clip-path="url(#clip0_985_2)">
<path d="M105.341 85.4718L97.1591 82.9246L82.4795 78.13L77.1866 76.5481C75.9269 76.1717 74.6591 77.1114 74.6591 78.4216V80.3431L74.6591 80.4861L74.6591 93.6189C74.6591 95.4173 75.8424 97.0031 77.5711 97.5214L128.963 112.929C131.588 113.717 134.233 111.758 134.233 109.027V97.302C134.233 95.5108 133.059 93.9297 131.34 93.4051L105.341 85.4718Z" fill="url(#paint0_linear_985_2)"/>
<path d="M128.963 74.1945C131.588 74.9817 134.233 73.0235 134.233 70.292V10.5038C134.233 7.76043 131.567 5.80062 128.936 6.60951L113.34 11.404C111.625 11.9312 110.455 13.5104 110.455 15.2983V65.6156C110.455 67.414 111.638 68.9999 113.366 69.5182L128.963 74.1945Z" fill="url(#paint1_linear_985_2)"/>
<path d="M28.6364 42.9649C28.6364 40.2215 25.9705 38.2617 23.3393 39.0706L2.88469 45.3585C1.16976 45.8857 0 47.4648 0 49.2527V71.2347C0 73.0332 1.18331 74.619 2.91197 75.1373L23.3666 81.2699C25.992 82.0571 28.6364 80.0988 28.6364 77.3674V42.9649Z" fill="url(#paint2_linear_985_2)"/>
<path d="M91.8613 18.0061C94.4928 17.1971 97.1585 19.1581 97.1582 21.9016L97.1553 57.2219C97.155 59.0198 95.9722 60.6057 94.2441 61.1242L64.2744 70.1164C62.5463 70.6351 61.3633 72.2208 61.3633 74.0188V106.359C61.3632 108.609 59.5317 110.434 57.2725 110.434H46.0225C43.7633 110.434 41.9317 108.609 41.9316 106.359V36.3625C41.9317 34.5747 43.1016 32.9951 44.8164 32.468L91.8613 18.0061ZM79 38.3107C79.0001 37.4292 78.1311 36.7989 77.2734 37.0588L61.9404 41.7063C61.3815 41.8756 61 42.3828 61 42.9572V54.6731C61 55.3378 61.6364 55.8171 62.2754 55.634L64.8887 54.885L78.1562 50.9416C78.6062 50.8068 78.999 50.3167 78.999 49.8547L79 38.3107Z" fill="url(#paint3_linear_985_2)"/>
<path d="M91.8613 17.8175C94.4928 17.0086 97.1585 18.9686 97.1582 21.7121L97.1553 57.6408C97.155 59.0789 95.9494 60.6037 94.5684 61.0226L53.8633 73.2951C46.8891 75.4104 41.9319 81.7746 41.9316 89.0373V36.173C41.9318 34.3853 43.1017 32.8066 44.8164 32.2795L91.8613 17.8175ZM79 38.3107C79.0001 37.4292 78.1311 36.7988 77.2734 37.0588L61.9404 41.7062C61.3815 41.8756 61 42.3827 61 42.9572V54.673C61 55.3377 61.6364 55.8171 62.2754 55.6339L64.8887 54.8849L78.1562 50.9416C78.6062 50.8068 78.999 50.3166 78.999 49.8546L79 38.3107Z" fill="url(#paint4_linear_985_2)"/>
</g>
<defs>
<linearGradient id="paint0_linear_985_2" x1="36.8181" y1="32.7232" x2="139.863" y2="126.607" gradientUnits="userSpaceOnUse">
<stop stop-color="#0061FF"/>
<stop offset="1" stop-color="#60EFFF"/>
</linearGradient>
<linearGradient id="paint1_linear_985_2" x1="36.8182" y1="32.7233" x2="139.863" y2="126.607" gradientUnits="userSpaceOnUse">
<stop stop-color="#0061FF"/>
<stop offset="1" stop-color="#60EFFF"/>
</linearGradient>
<linearGradient id="paint2_linear_985_2" x1="-11.2386" y1="36.1363" x2="108.996" y2="109.751" gradientUnits="userSpaceOnUse">
<stop stop-color="#0061FF"/>
<stop offset="1" stop-color="#60EFFF"/>
</linearGradient>
<linearGradient id="paint3_linear_985_2" x1="47.0786" y1="64.0902" x2="80.1461" y2="113.839" gradientUnits="userSpaceOnUse">
<stop stop-color="#0061FF"/>
<stop offset="1" stop-color="#60EFFF"/>
</linearGradient>
<linearGradient id="paint4_linear_985_2" x1="46.0227" y1="25.868" x2="77.0418" y2="77.9332" gradientUnits="userSpaceOnUse">
<stop stop-color="#0161FF"/>
<stop offset="1" stop-color="#4ED4FF"/>
</linearGradient>
<clipPath id="clip0_985_2">
<rect width="135" height="108" fill="white" transform="translate(0 6)"/>
</clipPath>
</defs>
</svg>
