<svg width="132" height="108" viewBox="0 0 132 108" fill="none" xmlns="http://www.w3.org/2000/svg">
<path d="M103 79.0001L95 76.5001L80.6466 71.7943L73 69.5002V74.0002H73.2655L73 74.0796V89.9697L131.25 107.5V87.6529L103 79.0001Z" fill="url(#paint0_linear_19_142)"/>
<path d="M131.25 69.4825V0L108 7.17429V62.485L131.25 69.4825Z" fill="url(#paint1_linear_19_142)"/>
<path fill-rule="evenodd" clip-rule="evenodd" d="M95 53.9363V11.1857L41 27.8486V103.5H60V64.7863L94.5456 54.3892L94.9961 54.2462L95 53.9363ZM73 42.7691L60 46.7982V39.5001L73 35.5001V42.7691Z" fill="url(#paint2_linear_19_142)"/>
<path d="M28 31.86L0 40.5V68.0001L28 76.4268V31.86Z" fill="url(#paint3_linear_19_142)"/>
<defs>
<linearGradient id="paint0_linear_19_142" x1="36" y1="26.5" x2="139.5" y2="118" gradientUnits="userSpaceOnUse">
<stop stop-color="#0061FF"/>
<stop offset="1" stop-color="#60EFFF"/>
</linearGradient>
<linearGradient id="paint1_linear_19_142" x1="36" y1="26.5" x2="139.5" y2="118" gradientUnits="userSpaceOnUse">
<stop stop-color="#0061FF"/>
<stop offset="1" stop-color="#60EFFF"/>
</linearGradient>
<linearGradient id="paint2_linear_19_142" x1="36" y1="26.5" x2="139.5" y2="118" gradientUnits="userSpaceOnUse">
<stop stop-color="#0061FF"/>
<stop offset="1" stop-color="#60EFFF"/>
</linearGradient>
<linearGradient id="paint3_linear_19_142" x1="36" y1="26.5" x2="139.5" y2="118" gradientUnits="userSpaceOnUse">
<stop stop-color="#0061FF"/>
<stop offset="1" stop-color="#60EFFF"/>
</linearGradient>
</defs>
</svg>
